<svg xmlns="http://www.w3.org/2000/svg" width="800" height="200" viewBox="0 0 800 200">
<rect width="800" height="200" fill="#0d1117" rx="6"/>
<style>text { font-family: system-ui, -apple-system, 'Segoe UI', Helvetica, Arial, sans-serif; fill: #8b949e; font-size: 11px; }</style>
<text x="55" y="16" fill="#c9d1d9" font-size="13" font-weight="600">Commits / Day (30d)</text>
<text x="47" y="35" text-anchor="end" font-size="10">133</text>
<text x="47" y="170" text-anchor="end" font-size="10">0</text>
<line x1="55" y1="25" x2="785" y2="25" stroke="#21262d" stroke-width="1"/>
<line x1="55" y1="170" x2="785" y2="170" stroke="#21262d" stroke-width="1"/>
<line x1="55" y1="97.5" x2="785" y2="97.5" stroke="#21262d" stroke-width="0.5" stroke-dasharray="4,4"/>
<text x="47" y="101.5" text-anchor="end" font-size="10">66</text>
<rect x="55.0" y="25.0" width="22.3" height="145.0" fill="#58a6ff" rx="1.5" opacity="0.9"/>
<text x="66.2" y="195" text-anchor="middle" font-size="10">03-25</text>
<rect x="79.3" y="151.5" width="22.3" height="18.5" fill="#58a6ff" rx="1.5" opacity="0.9"/>
<rect x="103.7" y="135.1" width="22.3" height="34.9" fill="#58a6ff" rx="1.5" opacity="0.9"/>
<rect x="128.0" y="124.2" width="22.3" height="45.8" fill="#58a6ff" rx="1.5" opacity="0.9"/>
<rect x="152.3" y="78.4" width="22.3" height="91.6" fill="#58a6ff" rx="1.5" opacity="0.9"/>
<rect x="176.7" y="61.0" width="22.3" height="109.0" fill="#58a6ff" rx="1.5" opacity="0.9"/>
<rect x="201.0" y="87.1" width="22.3" height="82.9" fill="#58a6ff" rx="1.5" opacity="0.9"/>
<rect x="225.3" y="106.8" width="22.3" height="63.2" fill="#58a6ff" rx="1.5" opacity="0.9"/>
<rect x="249.7" y="78.4" width="22.3" height="91.6" fill="#58a6ff" rx="1.5" opacity="0.9"/>
<rect x="274.0" y="124.2" width="22.3" height="45.8" fill="#58a6ff" rx="1.5" opacity="0.9"/>
<rect x="298.3" y="106.8" width="22.3" height="63.2" fill="#58a6ff" rx="1.5" opacity="0.9"/>
<rect x="322.7" y="51.2" width="22.3" height="118.8" fill="#58a6ff" rx="1.5" opacity="0.9"/>
<rect x="347.0" y="139.5" width="22.3" height="30.5" fill="#58a6ff" rx="1.5" opacity="0.9"/>
<rect x="371.3" y="131.8" width="22.3" height="38.2" fill="#58a6ff" rx="1.5" opacity="0.9"/>
<rect x="395.7" y="131.8" width="22.3" height="38.2" fill="#58a6ff" rx="1.5" opacity="0.9"/>
<rect x="420.0" y="90.4" width="22.3" height="79.6" fill="#58a6ff" rx="1.5" opacity="0.9"/>
<rect x="444.3" y="129.7" width="22.3" height="40.3" fill="#58a6ff" rx="1.5" opacity="0.9"/>
<rect x="468.7" y="156.9" width="22.3" height="13.1" fill="#58a6ff" rx="1.5" opacity="0.9"/>
<rect x="493.0" y="154.7" width="22.3" height="15.3" fill="#58a6ff" rx="1.5" opacity="0.9"/>
<rect x="517.3" y="154.7" width="22.3" height="15.3" fill="#58a6ff" rx="1.5" opacity="0.9"/>
<rect x="541.7" y="170.0" width="22.3" height="0.0" fill="#58a6ff" rx="1.5" opacity="0.9"/>
<rect x="566.0" y="170.0" width="22.3" height="0.0" fill="#58a6ff" rx="1.5" opacity="0.9"/>
<rect x="590.3" y="165.6" width="22.3" height="4.4" fill="#58a6ff" rx="1.5" opacity="0.9"/>
<rect x="614.7" y="168.9" width="22.3" height="1.1" fill="#58a6ff" rx="1.5" opacity="0.9"/>
<rect x="639.0" y="141.7" width="22.3" height="28.3" fill="#58a6ff" rx="1.5" opacity="0.9"/>
<rect x="663.3" y="88.2" width="22.3" height="81.8" fill="#58a6ff" rx="1.5" opacity="0.9"/>
<rect x="687.7" y="161.3" width="22.3" height="8.7" fill="#58a6ff" rx="1.5" opacity="0.9"/>
<rect x="712.0" y="166.7" width="22.3" height="3.3" fill="#58a6ff" rx="1.5" opacity="0.9"/>
<rect x="736.3" y="160.2" width="22.3" height="9.8" fill="#58a6ff" rx="1.5" opacity="0.9"/>
<rect x="760.7" y="170.0" width="22.3" height="0.0" fill="#58a6ff" rx="1.5" opacity="0.9"/>
<text x="771.8" y="195" text-anchor="middle" font-size="10">04-25</text>
</svg>