<svg xmlns="http://www.w3.org/2000/svg" width="800" height="200" viewBox="0 0 800 200">
<rect width="800" height="200" fill="#0d1117" rx="6"/>
<style>text { font-family: system-ui, -apple-system, 'Segoe UI', Helvetica, Arial, sans-serif; fill: #8b949e; font-size: 11px; }</style>
<text x="55" y="16" fill="#c9d1d9" font-size="13" font-weight="600">Commits / Day (30d)</text>
<text x="47" y="35" text-anchor="end" font-size="10">188</text>
<text x="47" y="170" text-anchor="end" font-size="10">0</text>
<line x1="55" y1="25" x2="785" y2="25" stroke="#21262d" stroke-width="1"/>
<line x1="55" y1="170" x2="785" y2="170" stroke="#21262d" stroke-width="1"/>
<line x1="55" y1="97.5" x2="785" y2="97.5" stroke="#21262d" stroke-width="0.5" stroke-dasharray="4,4"/>
<text x="47" y="101.5" text-anchor="end" font-size="10">94</text>
<rect x="55.0" y="105.2" width="22.3" height="64.8" fill="#58a6ff" rx="1.5" opacity="0.9"/>
<text x="66.2" y="195" text-anchor="middle" font-size="10">04-02</text>
<rect x="79.3" y="137.6" width="22.3" height="32.4" fill="#58a6ff" rx="1.5" opacity="0.9"/>
<rect x="103.7" y="125.3" width="22.3" height="44.7" fill="#58a6ff" rx="1.5" opacity="0.9"/>
<rect x="128.0" y="85.9" width="22.3" height="84.1" fill="#58a6ff" rx="1.5" opacity="0.9"/>
<rect x="152.3" y="148.4" width="22.3" height="21.6" fill="#58a6ff" rx="1.5" opacity="0.9"/>
<rect x="176.7" y="143.0" width="22.3" height="27.0" fill="#58a6ff" rx="1.5" opacity="0.9"/>
<rect x="201.0" y="143.0" width="22.3" height="27.0" fill="#58a6ff" rx="1.5" opacity="0.9"/>
<rect x="225.3" y="113.7" width="22.3" height="56.3" fill="#58a6ff" rx="1.5" opacity="0.9"/>
<rect x="249.7" y="141.5" width="22.3" height="28.5" fill="#58a6ff" rx="1.5" opacity="0.9"/>
<rect x="274.0" y="160.7" width="22.3" height="9.3" fill="#58a6ff" rx="1.5" opacity="0.9"/>
<rect x="298.3" y="159.2" width="22.3" height="10.8" fill="#58a6ff" rx="1.5" opacity="0.9"/>
<rect x="322.7" y="159.2" width="22.3" height="10.8" fill="#58a6ff" rx="1.5" opacity="0.9"/>
<rect x="347.0" y="170.0" width="22.3" height="0.0" fill="#58a6ff" rx="1.5" opacity="0.9"/>
<rect x="371.3" y="170.0" width="22.3" height="0.0" fill="#58a6ff" rx="1.5" opacity="0.9"/>
<rect x="395.7" y="166.9" width="22.3" height="3.1" fill="#58a6ff" rx="1.5" opacity="0.9"/>
<rect x="420.0" y="169.2" width="22.3" height="0.8" fill="#58a6ff" rx="1.5" opacity="0.9"/>
<rect x="444.3" y="149.9" width="22.3" height="20.1" fill="#58a6ff" rx="1.5" opacity="0.9"/>
<rect x="468.7" y="112.2" width="22.3" height="57.8" fill="#58a6ff" rx="1.5" opacity="0.9"/>
<rect x="493.0" y="163.8" width="22.3" height="6.2" fill="#58a6ff" rx="1.5" opacity="0.9"/>
<rect x="517.3" y="167.7" width="22.3" height="2.3" fill="#58a6ff" rx="1.5" opacity="0.9"/>
<rect x="541.7" y="163.1" width="22.3" height="6.9" fill="#58a6ff" rx="1.5" opacity="0.9"/>
<rect x="566.0" y="170.0" width="22.3" height="0.0" fill="#58a6ff" rx="1.5" opacity="0.9"/>
<rect x="590.3" y="170.0" width="22.3" height="0.0" fill="#58a6ff" rx="1.5" opacity="0.9"/>
<rect x="614.7" y="156.1" width="22.3" height="13.9" fill="#58a6ff" rx="1.5" opacity="0.9"/>
<rect x="639.0" y="25.0" width="22.3" height="145.0" fill="#58a6ff" rx="1.5" opacity="0.9"/>
<rect x="663.3" y="135.3" width="22.3" height="34.7" fill="#58a6ff" rx="1.5" opacity="0.9"/>
<rect x="687.7" y="167.7" width="22.3" height="2.3" fill="#58a6ff" rx="1.5" opacity="0.9"/>
<rect x="712.0" y="170.0" width="22.3" height="0.0" fill="#58a6ff" rx="1.5" opacity="0.9"/>
<rect x="736.3" y="160.0" width="22.3" height="10.0" fill="#58a6ff" rx="1.5" opacity="0.9"/>
<rect x="760.7" y="170.0" width="22.3" height="0.0" fill="#58a6ff" rx="1.5" opacity="0.9"/>
<text x="771.8" y="195" text-anchor="middle" font-size="10">05-15</text>
</svg>