<svg xmlns="http://www.w3.org/2000/svg" width="800" height="200" viewBox="0 0 800 200">
<rect width="800" height="200" fill="#0d1117" rx="6"/>
<style>text { font-family: system-ui, -apple-system, 'Segoe UI', Helvetica, Arial, sans-serif; fill: #8b949e; font-size: 11px; }</style>
<text x="55" y="16" fill="#c9d1d9" font-size="13" font-weight="600">Lines of Code / Day (30d)</text>
<rect x="640" y="6" width="10" height="10" fill="#3fb950" rx="2"/>
<text x="654" y="15" font-size="10" fill="#c9d1d9">added</text>
<rect x="700" y="6" width="10" height="10" fill="#f85149" rx="2"/>
<text x="714" y="15" font-size="10" fill="#c9d1d9">removed</text>
<text x="47" y="35" text-anchor="end" font-size="10">35.2K</text>
<text x="47" y="170" text-anchor="end" font-size="10">0</text>
<line x1="55" y1="25" x2="785" y2="25" stroke="#21262d" stroke-width="1"/>
<line x1="55" y1="170" x2="785" y2="170" stroke="#21262d" stroke-width="1"/>
<line x1="55" y1="97.5" x2="785" y2="97.5" stroke="#21262d" stroke-width="0.5" stroke-dasharray="4,4"/>
<text x="47" y="101.5" text-anchor="end" font-size="10">17.6K</text>
<rect x="55.0" y="166.3" width="22.3" height="3.7" fill="#f85149" rx="1.5" opacity="0.9"/>
<rect x="55.0" y="140.6" width="22.3" height="25.8" fill="#3fb950" rx="1.5" opacity="0.9"/>
<text x="66.2" y="195" text-anchor="middle" font-size="10">03-24</text>
<rect x="79.3" y="153.8" width="22.3" height="16.2" fill="#f85149" rx="1.5" opacity="0.9"/>
<rect x="79.3" y="85.3" width="22.3" height="68.5" fill="#3fb950" rx="1.5" opacity="0.9"/>
<rect x="103.7" y="169.3" width="22.3" height="0.7" fill="#f85149" rx="1.5" opacity="0.9"/>
<rect x="103.7" y="166.7" width="22.3" height="2.6" fill="#3fb950" rx="1.5" opacity="0.9"/>
<rect x="128.0" y="146.8" width="22.3" height="23.2" fill="#f85149" rx="1.5" opacity="0.9"/>
<rect x="128.0" y="118.6" width="22.3" height="28.2" fill="#3fb950" rx="1.5" opacity="0.9"/>
<rect x="152.3" y="158.6" width="22.3" height="11.4" fill="#f85149" rx="1.5" opacity="0.9"/>
<rect x="152.3" y="60.8" width="22.3" height="97.9" fill="#3fb950" rx="1.5" opacity="0.9"/>
<rect x="176.7" y="160.2" width="22.3" height="9.8" fill="#f85149" rx="1.5" opacity="0.9"/>
<rect x="176.7" y="108.5" width="22.3" height="51.7" fill="#3fb950" rx="1.5" opacity="0.9"/>
<rect x="201.0" y="159.3" width="22.3" height="10.7" fill="#f85149" rx="1.5" opacity="0.9"/>
<rect x="201.0" y="136.3" width="22.3" height="23.0" fill="#3fb950" rx="1.5" opacity="0.9"/>
<rect x="225.3" y="146.7" width="22.3" height="23.3" fill="#f85149" rx="1.5" opacity="0.9"/>
<rect x="225.3" y="128.1" width="22.3" height="18.6" fill="#3fb950" rx="1.5" opacity="0.9"/>
<rect x="249.7" y="166.5" width="22.3" height="3.5" fill="#f85149" rx="1.5" opacity="0.9"/>
<rect x="249.7" y="151.1" width="22.3" height="15.5" fill="#3fb950" rx="1.5" opacity="0.9"/>
<rect x="274.0" y="165.3" width="22.3" height="4.7" fill="#f85149" rx="1.5" opacity="0.9"/>
<rect x="274.0" y="151.0" width="22.3" height="14.4" fill="#3fb950" rx="1.5" opacity="0.9"/>
<rect x="298.3" y="168.6" width="22.3" height="1.4" fill="#f85149" rx="1.5" opacity="0.9"/>
<rect x="298.3" y="159.6" width="22.3" height="9.0" fill="#3fb950" rx="1.5" opacity="0.9"/>
<rect x="322.7" y="167.3" width="22.3" height="2.7" fill="#f85149" rx="1.5" opacity="0.9"/>
<rect x="322.7" y="124.5" width="22.3" height="42.8" fill="#3fb950" rx="1.5" opacity="0.9"/>
<rect x="347.0" y="159.2" width="22.3" height="10.8" fill="#f85149" rx="1.5" opacity="0.9"/>
<rect x="347.0" y="66.0" width="22.3" height="93.3" fill="#3fb950" rx="1.5" opacity="0.9"/>
<rect x="371.3" y="169.1" width="22.3" height="0.9" fill="#f85149" rx="1.5" opacity="0.9"/>
<rect x="371.3" y="161.9" width="22.3" height="7.2" fill="#3fb950" rx="1.5" opacity="0.9"/>
<rect x="395.7" y="169.1" width="22.3" height="0.9" fill="#f85149" rx="1.5" opacity="0.9"/>
<rect x="395.7" y="153.2" width="22.3" height="15.9" fill="#3fb950" rx="1.5" opacity="0.9"/>
<rect x="420.0" y="161.3" width="22.3" height="8.7" fill="#f85149" rx="1.5" opacity="0.9"/>
<rect x="420.0" y="145.7" width="22.3" height="15.6" fill="#3fb950" rx="1.5" opacity="0.9"/>
<rect x="444.3" y="164.8" width="22.3" height="5.2" fill="#f85149" rx="1.5" opacity="0.9"/>
<rect x="444.3" y="124.6" width="22.3" height="40.2" fill="#3fb950" rx="1.5" opacity="0.9"/>
<rect x="468.7" y="169.2" width="22.3" height="0.8" fill="#f85149" rx="1.5" opacity="0.9"/>
<rect x="468.7" y="25.0" width="22.3" height="144.2" fill="#3fb950" rx="1.5" opacity="0.9"/>
<rect x="493.0" y="169.8" width="22.3" height="0.2" fill="#f85149" rx="1.5" opacity="0.9"/>
<rect x="493.0" y="169.5" width="22.3" height="0.3" fill="#3fb950" rx="1.5" opacity="0.9"/>
<rect x="517.3" y="154.9" width="22.3" height="15.1" fill="#f85149" rx="1.5" opacity="0.9"/>
<rect x="517.3" y="143.6" width="22.3" height="11.4" fill="#3fb950" rx="1.5" opacity="0.9"/>
<rect x="541.7" y="169.7" width="22.3" height="0.3" fill="#f85149" rx="1.5" opacity="0.9"/>
<rect x="541.7" y="167.0" width="22.3" height="2.8" fill="#3fb950" rx="1.5" opacity="0.9"/>
<rect x="614.7" y="170.0" width="22.3" height="0.0" fill="#f85149" rx="1.5" opacity="0.9"/>
<rect x="614.7" y="169.9" width="22.3" height="0.0" fill="#3fb950" rx="1.5" opacity="0.9"/>
<rect x="663.3" y="169.3" width="22.3" height="0.7" fill="#f85149" rx="1.5" opacity="0.9"/>
<rect x="663.3" y="93.0" width="22.3" height="76.3" fill="#3fb950" rx="1.5" opacity="0.9"/>
<rect x="687.7" y="168.5" width="22.3" height="1.5" fill="#f85149" rx="1.5" opacity="0.9"/>
<rect x="687.7" y="149.7" width="22.3" height="18.7" fill="#3fb950" rx="1.5" opacity="0.9"/>
<rect x="712.0" y="169.9" width="22.3" height="0.1" fill="#f85149" rx="1.5" opacity="0.9"/>
<rect x="712.0" y="169.6" width="22.3" height="0.3" fill="#3fb950" rx="1.5" opacity="0.9"/>
<rect x="736.3" y="169.8" width="22.3" height="0.2" fill="#f85149" rx="1.5" opacity="0.9"/>
<rect x="736.3" y="169.1" width="22.3" height="0.7" fill="#3fb950" rx="1.5" opacity="0.9"/>
<rect x="760.7" y="169.0" width="22.3" height="1.0" fill="#f85149" rx="1.5" opacity="0.9"/>
<rect x="760.7" y="145.5" width="22.3" height="23.5" fill="#3fb950" rx="1.5" opacity="0.9"/>
<text x="771.8" y="195" text-anchor="middle" font-size="10">04-24</text>
</svg>