<svg xmlns="http://www.w3.org/2000/svg" width="800" height="200" viewBox="0 0 800 200">
<rect width="800" height="200" fill="#0d1117" rx="6"/>
<style>text { font-family: system-ui, -apple-system, 'Segoe UI', Helvetica, Arial, sans-serif; fill: #8b949e; font-size: 11px; }</style>
<text x="55" y="16" fill="#c9d1d9" font-size="13" font-weight="600">Lines of Code / Day (30d)</text>
<rect x="640" y="6" width="10" height="10" fill="#3fb950" rx="2"/>
<text x="654" y="15" font-size="10" fill="#c9d1d9">added</text>
<rect x="700" y="6" width="10" height="10" fill="#f85149" rx="2"/>
<text x="714" y="15" font-size="10" fill="#c9d1d9">removed</text>
<text x="47" y="35" text-anchor="end" font-size="10">940.0K</text>
<text x="47" y="170" text-anchor="end" font-size="10">0</text>
<line x1="55" y1="25" x2="785" y2="25" stroke="#21262d" stroke-width="1"/>
<line x1="55" y1="170" x2="785" y2="170" stroke="#21262d" stroke-width="1"/>
<line x1="55" y1="97.5" x2="785" y2="97.5" stroke="#21262d" stroke-width="0.5" stroke-dasharray="4,4"/>
<text x="47" y="101.5" text-anchor="end" font-size="10">470.0K</text>
<text x="66.2" y="195" text-anchor="middle" font-size="10">05-09</text>
<rect x="371.3" y="170.0" width="22.3" height="0.0" fill="#f85149" rx="1.5" opacity="0.9"/>
<rect x="371.3" y="25.0" width="22.3" height="145.0" fill="#3fb950" rx="1.5" opacity="0.9"/>
<rect x="395.7" y="170.0" width="22.3" height="0.0" fill="#f85149" rx="1.5" opacity="0.9"/>
<rect x="395.7" y="170.0" width="22.3" height="0.0" fill="#3fb950" rx="1.5" opacity="0.9"/>
<rect x="420.0" y="170.0" width="22.3" height="0.0" fill="#f85149" rx="1.5" opacity="0.9"/>
<rect x="420.0" y="170.0" width="22.3" height="0.0" fill="#3fb950" rx="1.5" opacity="0.9"/>
<rect x="444.3" y="170.0" width="22.3" height="0.0" fill="#f85149" rx="1.5" opacity="0.9"/>
<rect x="444.3" y="170.0" width="22.3" height="0.0" fill="#3fb950" rx="1.5" opacity="0.9"/>
<rect x="468.7" y="170.0" width="22.3" height="0.0" fill="#f85149" rx="1.5" opacity="0.9"/>
<rect x="468.7" y="170.0" width="22.3" height="0.0" fill="#3fb950" rx="1.5" opacity="0.9"/>
<rect x="493.0" y="170.0" width="22.3" height="0.0" fill="#f85149" rx="1.5" opacity="0.9"/>
<rect x="493.0" y="170.0" width="22.3" height="0.0" fill="#3fb950" rx="1.5" opacity="0.9"/>
<rect x="517.3" y="170.0" width="22.3" height="0.0" fill="#f85149" rx="1.5" opacity="0.9"/>
<rect x="517.3" y="170.0" width="22.3" height="0.0" fill="#3fb950" rx="1.5" opacity="0.9"/>
<rect x="566.0" y="170.0" width="22.3" height="0.0" fill="#f85149" rx="1.5" opacity="0.9"/>
<rect x="566.0" y="170.0" width="22.3" height="0.0" fill="#3fb950" rx="1.5" opacity="0.9"/>
<rect x="590.3" y="170.0" width="22.3" height="0.0" fill="#f85149" rx="1.5" opacity="0.9"/>
<rect x="590.3" y="170.0" width="22.3" height="0.0" fill="#3fb950" rx="1.5" opacity="0.9"/>
<rect x="614.7" y="170.0" width="22.3" height="0.0" fill="#f85149" rx="1.5" opacity="0.9"/>
<rect x="614.7" y="170.0" width="22.3" height="0.0" fill="#3fb950" rx="1.5" opacity="0.9"/>
<rect x="639.0" y="170.0" width="22.3" height="0.0" fill="#f85149" rx="1.5" opacity="0.9"/>
<rect x="639.0" y="170.0" width="22.3" height="0.0" fill="#3fb950" rx="1.5" opacity="0.9"/>
<rect x="663.3" y="170.0" width="22.3" height="0.0" fill="#f85149" rx="1.5" opacity="0.9"/>
<rect x="663.3" y="170.0" width="22.3" height="0.0" fill="#3fb950" rx="1.5" opacity="0.9"/>
<rect x="687.7" y="170.0" width="22.3" height="0.0" fill="#f85149" rx="1.5" opacity="0.9"/>
<rect x="687.7" y="170.0" width="22.3" height="0.0" fill="#3fb950" rx="1.5" opacity="0.9"/>
<text x="771.8" y="195" text-anchor="middle" font-size="10">06-07</text>
</svg>