<svg xmlns="http://www.w3.org/2000/svg" width="800" height="200" viewBox="0 0 800 200">
<rect width="800" height="200" fill="#0d1117" rx="6"/>
<style>text { font-family: system-ui, -apple-system, 'Segoe UI', Helvetica, Arial, sans-serif; fill: #8b949e; font-size: 11px; }</style>
<text x="55" y="16" fill="#c9d1d9" font-size="13" font-weight="600">Lines of Code / Day (30d)</text>
<rect x="640" y="6" width="10" height="10" fill="#3fb950" rx="2"/>
<text x="654" y="15" font-size="10" fill="#c9d1d9">added</text>
<rect x="700" y="6" width="10" height="10" fill="#f85149" rx="2"/>
<text x="714" y="15" font-size="10" fill="#c9d1d9">removed</text>
<text x="47" y="35" text-anchor="end" font-size="10">532.5K</text>
<text x="47" y="170" text-anchor="end" font-size="10">0</text>
<line x1="55" y1="25" x2="785" y2="25" stroke="#21262d" stroke-width="1"/>
<line x1="55" y1="170" x2="785" y2="170" stroke="#21262d" stroke-width="1"/>
<line x1="55" y1="97.5" x2="785" y2="97.5" stroke="#21262d" stroke-width="0.5" stroke-dasharray="4,4"/>
<text x="47" y="101.5" text-anchor="end" font-size="10">266.3K</text>
<rect x="55.0" y="25.8" width="22.3" height="144.2" fill="#f85149" rx="1.5" opacity="0.9"/>
<rect x="55.0" y="25.0" width="22.3" height="0.8" fill="#3fb950" rx="1.5" opacity="0.9"/>
<text x="66.2" y="195" text-anchor="middle" font-size="10">03-14</text>
<rect x="79.3" y="169.2" width="22.3" height="0.8" fill="#f85149" rx="1.5" opacity="0.9"/>
<rect x="79.3" y="168.2" width="22.3" height="1.0" fill="#3fb950" rx="1.5" opacity="0.9"/>
<rect x="103.7" y="165.5" width="22.3" height="4.5" fill="#f85149" rx="1.5" opacity="0.9"/>
<rect x="103.7" y="160.8" width="22.3" height="4.8" fill="#3fb950" rx="1.5" opacity="0.9"/>
<rect x="128.0" y="169.5" width="22.3" height="0.5" fill="#f85149" rx="1.5" opacity="0.9"/>
<rect x="128.0" y="167.7" width="22.3" height="1.8" fill="#3fb950" rx="1.5" opacity="0.9"/>
<rect x="152.3" y="168.8" width="22.3" height="1.2" fill="#f85149" rx="1.5" opacity="0.9"/>
<rect x="152.3" y="168.6" width="22.3" height="0.2" fill="#3fb950" rx="1.5" opacity="0.9"/>
<rect x="176.7" y="169.9" width="22.3" height="0.1" fill="#f85149" rx="1.5" opacity="0.9"/>
<rect x="176.7" y="169.6" width="22.3" height="0.3" fill="#3fb950" rx="1.5" opacity="0.9"/>
<rect x="201.0" y="169.9" width="22.3" height="0.1" fill="#f85149" rx="1.5" opacity="0.9"/>
<rect x="201.0" y="167.0" width="22.3" height="2.9" fill="#3fb950" rx="1.5" opacity="0.9"/>
<rect x="225.3" y="169.9" width="22.3" height="0.1" fill="#f85149" rx="1.5" opacity="0.9"/>
<rect x="225.3" y="169.7" width="22.3" height="0.2" fill="#3fb950" rx="1.5" opacity="0.9"/>
<rect x="249.7" y="169.7" width="22.3" height="0.3" fill="#f85149" rx="1.5" opacity="0.9"/>
<rect x="249.7" y="168.6" width="22.3" height="1.1" fill="#3fb950" rx="1.5" opacity="0.9"/>
<rect x="274.0" y="169.2" width="22.3" height="0.8" fill="#f85149" rx="1.5" opacity="0.9"/>
<rect x="274.0" y="167.3" width="22.3" height="1.9" fill="#3fb950" rx="1.5" opacity="0.9"/>
<rect x="298.3" y="169.8" width="22.3" height="0.2" fill="#f85149" rx="1.5" opacity="0.9"/>
<rect x="298.3" y="168.0" width="22.3" height="1.8" fill="#3fb950" rx="1.5" opacity="0.9"/>
<rect x="322.7" y="168.9" width="22.3" height="1.1" fill="#f85149" rx="1.5" opacity="0.9"/>
<rect x="322.7" y="164.1" width="22.3" height="4.8" fill="#3fb950" rx="1.5" opacity="0.9"/>
<rect x="347.0" y="170.0" width="22.3" height="0.0" fill="#f85149" rx="1.5" opacity="0.9"/>
<rect x="347.0" y="169.8" width="22.3" height="0.2" fill="#3fb950" rx="1.5" opacity="0.9"/>
<rect x="371.3" y="168.5" width="22.3" height="1.5" fill="#f85149" rx="1.5" opacity="0.9"/>
<rect x="371.3" y="166.6" width="22.3" height="1.9" fill="#3fb950" rx="1.5" opacity="0.9"/>
<rect x="395.7" y="169.2" width="22.3" height="0.8" fill="#f85149" rx="1.5" opacity="0.9"/>
<rect x="395.7" y="162.7" width="22.3" height="6.5" fill="#3fb950" rx="1.5" opacity="0.9"/>
<rect x="420.0" y="169.4" width="22.3" height="0.6" fill="#f85149" rx="1.5" opacity="0.9"/>
<rect x="420.0" y="165.9" width="22.3" height="3.4" fill="#3fb950" rx="1.5" opacity="0.9"/>
<rect x="444.3" y="169.3" width="22.3" height="0.7" fill="#f85149" rx="1.5" opacity="0.9"/>
<rect x="444.3" y="166.2" width="22.3" height="3.0" fill="#3fb950" rx="1.5" opacity="0.9"/>
<rect x="468.7" y="168.5" width="22.3" height="1.5" fill="#f85149" rx="1.5" opacity="0.9"/>
<rect x="468.7" y="167.2" width="22.3" height="1.2" fill="#3fb950" rx="1.5" opacity="0.9"/>
<rect x="493.0" y="169.8" width="22.3" height="0.2" fill="#f85149" rx="1.5" opacity="0.9"/>
<rect x="493.0" y="168.7" width="22.3" height="1.0" fill="#3fb950" rx="1.5" opacity="0.9"/>
<rect x="517.3" y="169.7" width="22.3" height="0.3" fill="#f85149" rx="1.5" opacity="0.9"/>
<rect x="517.3" y="168.7" width="22.3" height="1.0" fill="#3fb950" rx="1.5" opacity="0.9"/>
<rect x="541.7" y="169.9" width="22.3" height="0.1" fill="#f85149" rx="1.5" opacity="0.9"/>
<rect x="541.7" y="169.3" width="22.3" height="0.6" fill="#3fb950" rx="1.5" opacity="0.9"/>
<rect x="566.0" y="169.8" width="22.3" height="0.2" fill="#f85149" rx="1.5" opacity="0.9"/>
<rect x="566.0" y="166.9" width="22.3" height="2.9" fill="#3fb950" rx="1.5" opacity="0.9"/>
<rect x="590.3" y="169.3" width="22.3" height="0.7" fill="#f85149" rx="1.5" opacity="0.9"/>
<rect x="590.3" y="163.1" width="22.3" height="6.2" fill="#3fb950" rx="1.5" opacity="0.9"/>
<rect x="614.7" y="169.9" width="22.3" height="0.1" fill="#f85149" rx="1.5" opacity="0.9"/>
<rect x="614.7" y="169.5" width="22.3" height="0.5" fill="#3fb950" rx="1.5" opacity="0.9"/>
<rect x="639.0" y="169.9" width="22.3" height="0.1" fill="#f85149" rx="1.5" opacity="0.9"/>
<rect x="639.0" y="168.9" width="22.3" height="1.1" fill="#3fb950" rx="1.5" opacity="0.9"/>
<rect x="663.3" y="169.4" width="22.3" height="0.6" fill="#f85149" rx="1.5" opacity="0.9"/>
<rect x="663.3" y="168.4" width="22.3" height="1.0" fill="#3fb950" rx="1.5" opacity="0.9"/>
<rect x="687.7" y="169.7" width="22.3" height="0.3" fill="#f85149" rx="1.5" opacity="0.9"/>
<rect x="687.7" y="167.0" width="22.3" height="2.7" fill="#3fb950" rx="1.5" opacity="0.9"/>
<rect x="712.0" y="169.9" width="22.3" height="0.1" fill="#f85149" rx="1.5" opacity="0.9"/>
<rect x="712.0" y="160.4" width="22.3" height="9.5" fill="#3fb950" rx="1.5" opacity="0.9"/>
<rect x="736.3" y="170.0" width="22.3" height="0.0" fill="#f85149" rx="1.5" opacity="0.9"/>
<rect x="736.3" y="170.0" width="22.3" height="0.0" fill="#3fb950" rx="1.5" opacity="0.9"/>
<rect x="760.7" y="170.0" width="22.3" height="0.0" fill="#f85149" rx="1.5" opacity="0.9"/>
<rect x="760.7" y="169.6" width="22.3" height="0.4" fill="#3fb950" rx="1.5" opacity="0.9"/>
<text x="771.8" y="195" text-anchor="middle" font-size="10">04-12</text>
</svg>