<svg xmlns="http://www.w3.org/2000/svg" width="800" height="200" viewBox="0 0 800 200">
<rect width="800" height="200" fill="#0d1117" rx="6"/>
<style>text { font-family: system-ui, -apple-system, 'Segoe UI', Helvetica, Arial, sans-serif; fill: #8b949e; font-size: 11px; }</style>
<text x="55" y="16" fill="#c9d1d9" font-size="13" font-weight="600">Releases / Day (30d)</text>
<text x="47" y="35" text-anchor="end" font-size="10">34</text>
<text x="47" y="170" text-anchor="end" font-size="10">0</text>
<line x1="55" y1="25" x2="785" y2="25" stroke="#21262d" stroke-width="1"/>
<line x1="55" y1="170" x2="785" y2="170" stroke="#21262d" stroke-width="1"/>
<line x1="55" y1="97.5" x2="785" y2="97.5" stroke="#21262d" stroke-width="0.5" stroke-dasharray="4,4"/>
<text x="47" y="101.5" text-anchor="end" font-size="10">17</text>
<rect x="55.0" y="170.0" width="22.3" height="0.0" fill="#bc8cff" rx="1.5" opacity="0.9"/>
<text x="66.2" y="195" text-anchor="middle" font-size="10">03-22</text>
<rect x="79.3" y="148.7" width="22.3" height="21.3" fill="#bc8cff" rx="1.5" opacity="0.9"/>
<rect x="103.7" y="84.7" width="22.3" height="85.3" fill="#bc8cff" rx="1.5" opacity="0.9"/>
<rect x="128.0" y="25.0" width="22.3" height="145.0" fill="#bc8cff" rx="1.5" opacity="0.9"/>
<rect x="152.3" y="157.2" width="22.3" height="12.8" fill="#bc8cff" rx="1.5" opacity="0.9"/>
<rect x="176.7" y="140.1" width="22.3" height="29.9" fill="#bc8cff" rx="1.5" opacity="0.9"/>
<rect x="201.0" y="106.0" width="22.3" height="64.0" fill="#bc8cff" rx="1.5" opacity="0.9"/>
<rect x="225.3" y="29.3" width="22.3" height="140.7" fill="#bc8cff" rx="1.5" opacity="0.9"/>
<rect x="249.7" y="59.1" width="22.3" height="110.9" fill="#bc8cff" rx="1.5" opacity="0.9"/>
<rect x="274.0" y="84.7" width="22.3" height="85.3" fill="#bc8cff" rx="1.5" opacity="0.9"/>
<rect x="298.3" y="144.4" width="22.3" height="25.6" fill="#bc8cff" rx="1.5" opacity="0.9"/>
<rect x="322.7" y="84.7" width="22.3" height="85.3" fill="#bc8cff" rx="1.5" opacity="0.9"/>
<rect x="347.0" y="152.9" width="22.3" height="17.1" fill="#bc8cff" rx="1.5" opacity="0.9"/>
<rect x="371.3" y="161.5" width="22.3" height="8.5" fill="#bc8cff" rx="1.5" opacity="0.9"/>
<rect x="395.7" y="101.8" width="22.3" height="68.2" fill="#bc8cff" rx="1.5" opacity="0.9"/>
<rect x="420.0" y="148.7" width="22.3" height="21.3" fill="#bc8cff" rx="1.5" opacity="0.9"/>
<rect x="444.3" y="140.1" width="22.3" height="29.9" fill="#bc8cff" rx="1.5" opacity="0.9"/>
<rect x="468.7" y="148.7" width="22.3" height="21.3" fill="#bc8cff" rx="1.5" opacity="0.9"/>
<rect x="493.0" y="110.3" width="22.3" height="59.7" fill="#bc8cff" rx="1.5" opacity="0.9"/>
<rect x="517.3" y="148.7" width="22.3" height="21.3" fill="#bc8cff" rx="1.5" opacity="0.9"/>
<rect x="541.7" y="157.2" width="22.3" height="12.8" fill="#bc8cff" rx="1.5" opacity="0.9"/>
<rect x="566.0" y="165.7" width="22.3" height="4.3" fill="#bc8cff" rx="1.5" opacity="0.9"/>
<rect x="590.3" y="170.0" width="22.3" height="0.0" fill="#bc8cff" rx="1.5" opacity="0.9"/>
<rect x="614.7" y="170.0" width="22.3" height="0.0" fill="#bc8cff" rx="1.5" opacity="0.9"/>
<rect x="639.0" y="170.0" width="22.3" height="0.0" fill="#bc8cff" rx="1.5" opacity="0.9"/>
<rect x="663.3" y="161.5" width="22.3" height="8.5" fill="#bc8cff" rx="1.5" opacity="0.9"/>
<rect x="687.7" y="170.0" width="22.3" height="0.0" fill="#bc8cff" rx="1.5" opacity="0.9"/>
<rect x="712.0" y="152.9" width="22.3" height="17.1" fill="#bc8cff" rx="1.5" opacity="0.9"/>
<rect x="736.3" y="170.0" width="22.3" height="0.0" fill="#bc8cff" rx="1.5" opacity="0.9"/>
<rect x="760.7" y="170.0" width="22.3" height="0.0" fill="#bc8cff" rx="1.5" opacity="0.9"/>
<text x="771.8" y="195" text-anchor="middle" font-size="10">04-22</text>
</svg>