<svg xmlns="http://www.w3.org/2000/svg" width="800" height="200" viewBox="0 0 800 200">
<rect width="800" height="200" fill="#0d1117" rx="6"/>
<style>text { font-family: system-ui, -apple-system, 'Segoe UI', Helvetica, Arial, sans-serif; fill: #8b949e; font-size: 11px; }</style>
<text x="55" y="16" fill="#c9d1d9" font-size="13" font-weight="600">Releases / Day (30d)</text>
<text x="47" y="35" text-anchor="end" font-size="10">33</text>
<text x="47" y="170" text-anchor="end" font-size="10">0</text>
<line x1="55" y1="25" x2="785" y2="25" stroke="#21262d" stroke-width="1"/>
<line x1="55" y1="170" x2="785" y2="170" stroke="#21262d" stroke-width="1"/>
<line x1="55" y1="97.5" x2="785" y2="97.5" stroke="#21262d" stroke-width="0.5" stroke-dasharray="4,4"/>
<text x="47" y="101.5" text-anchor="end" font-size="10">16</text>
<rect x="55.0" y="156.8" width="22.3" height="13.2" fill="#bc8cff" rx="1.5" opacity="0.9"/>
<text x="66.2" y="195" text-anchor="middle" font-size="10">03-26</text>
<rect x="79.3" y="139.2" width="22.3" height="30.8" fill="#bc8cff" rx="1.5" opacity="0.9"/>
<rect x="103.7" y="104.1" width="22.3" height="65.9" fill="#bc8cff" rx="1.5" opacity="0.9"/>
<rect x="128.0" y="25.0" width="22.3" height="145.0" fill="#bc8cff" rx="1.5" opacity="0.9"/>
<rect x="152.3" y="55.8" width="22.3" height="114.2" fill="#bc8cff" rx="1.5" opacity="0.9"/>
<rect x="176.7" y="82.1" width="22.3" height="87.9" fill="#bc8cff" rx="1.5" opacity="0.9"/>
<rect x="201.0" y="143.6" width="22.3" height="26.4" fill="#bc8cff" rx="1.5" opacity="0.9"/>
<rect x="225.3" y="82.1" width="22.3" height="87.9" fill="#bc8cff" rx="1.5" opacity="0.9"/>
<rect x="249.7" y="152.4" width="22.3" height="17.6" fill="#bc8cff" rx="1.5" opacity="0.9"/>
<rect x="274.0" y="161.2" width="22.3" height="8.8" fill="#bc8cff" rx="1.5" opacity="0.9"/>
<rect x="298.3" y="99.7" width="22.3" height="70.3" fill="#bc8cff" rx="1.5" opacity="0.9"/>
<rect x="322.7" y="148.0" width="22.3" height="22.0" fill="#bc8cff" rx="1.5" opacity="0.9"/>
<rect x="347.0" y="139.2" width="22.3" height="30.8" fill="#bc8cff" rx="1.5" opacity="0.9"/>
<rect x="371.3" y="148.0" width="22.3" height="22.0" fill="#bc8cff" rx="1.5" opacity="0.9"/>
<rect x="395.7" y="108.5" width="22.3" height="61.5" fill="#bc8cff" rx="1.5" opacity="0.9"/>
<rect x="420.0" y="148.0" width="22.3" height="22.0" fill="#bc8cff" rx="1.5" opacity="0.9"/>
<rect x="444.3" y="156.8" width="22.3" height="13.2" fill="#bc8cff" rx="1.5" opacity="0.9"/>
<rect x="468.7" y="165.6" width="22.3" height="4.4" fill="#bc8cff" rx="1.5" opacity="0.9"/>
<rect x="493.0" y="170.0" width="22.3" height="0.0" fill="#bc8cff" rx="1.5" opacity="0.9"/>
<rect x="517.3" y="170.0" width="22.3" height="0.0" fill="#bc8cff" rx="1.5" opacity="0.9"/>
<rect x="541.7" y="170.0" width="22.3" height="0.0" fill="#bc8cff" rx="1.5" opacity="0.9"/>
<rect x="566.0" y="161.2" width="22.3" height="8.8" fill="#bc8cff" rx="1.5" opacity="0.9"/>
<rect x="590.3" y="170.0" width="22.3" height="0.0" fill="#bc8cff" rx="1.5" opacity="0.9"/>
<rect x="614.7" y="152.4" width="22.3" height="17.6" fill="#bc8cff" rx="1.5" opacity="0.9"/>
<rect x="639.0" y="170.0" width="22.3" height="0.0" fill="#bc8cff" rx="1.5" opacity="0.9"/>
<rect x="663.3" y="170.0" width="22.3" height="0.0" fill="#bc8cff" rx="1.5" opacity="0.9"/>
<rect x="687.7" y="170.0" width="22.3" height="0.0" fill="#bc8cff" rx="1.5" opacity="0.9"/>
<rect x="712.0" y="156.8" width="22.3" height="13.2" fill="#bc8cff" rx="1.5" opacity="0.9"/>
<rect x="736.3" y="170.0" width="22.3" height="0.0" fill="#bc8cff" rx="1.5" opacity="0.9"/>
<rect x="760.7" y="170.0" width="22.3" height="0.0" fill="#bc8cff" rx="1.5" opacity="0.9"/>
<text x="771.8" y="195" text-anchor="middle" font-size="10">04-26</text>
</svg>